# xmcd CD database file
#
# Track frame offsets:
#	150
#	19555
#	42405
#	61810
#
# Disc length: 1123 seconds
#
# Revision: 0
# Processed by: cddbd v1.5.2PL0 Copyright (c) Steve Scherf et al.
# Submitted via: CDex 1.70beta2
#
DISCID=28046104
DTITLE=anNina - まなざし
DYEAR=2009
DGENRE=Pops
TTITLE0=まなざし
TTITLE1=loop garden
TTITLE2=まなざし -Instrumental-
TTITLE3=loop garden -Instrumental-
EXTD=YEAR: 2009
EXTT0=
EXTT1=
EXTT2=
EXTT3=
PLAYORDER=
